# Blender v3.6.4 OBJ File: ''
# www.blender.org
mtllib untitled.mtl
o Cylinder
v 0.000000 -1.000000 -1.000000
v -0.000000 1.654789 -1.437349
v 0.195090 -1.000000 -0.980785
v 0.280413 1.654789 -1.409731
v 0.382683 -1.000000 -0.923880
v 0.550050 1.654789 -1.327937
v 0.555570 -1.000000 -0.831470
v 0.798548 1.654789 -1.195112
v 0.707107 -1.000000 -0.707107
v 1.016359 1.654789 -1.016359
v 0.831470 -1.000000 -0.555570
v 1.195112 1.654789 -0.798548
v 0.923880 -1.000000 -0.382683
v 1.327937 1.654789 -0.550050
v 0.980785 -1.000000 -0.195090
v 1.409731 1.654789 -0.280413
v 1.000000 -1.000000 0.000000
v 1.437349 1.654789 0.000000
v 0.980785 -1.000000 0.195090
v 1.409731 1.654789 0.280413
v 0.923880 -1.000000 0.382683
v 1.327937 1.654789 0.550050
v 0.831470 -1.000000 0.555570
v 1.195112 1.654789 0.798548
v 0.707107 -1.000000 0.707107
v 1.016359 1.654789 1.016359
v 0.555570 -1.000000 0.831470
v 0.798548 1.654789 1.195112
v 0.382683 -1.000000 0.923880
v 0.550050 1.654789 1.327937
v 0.195090 -1.000000 0.980785
v 0.280413 1.654789 1.409731
v 0.000000 -1.000000 1.000000
v -0.000000 1.654789 1.437349
v -0.195090 -1.000000 0.980785
v -0.280413 1.654789 1.409731
v -0.382683 -1.000000 0.923880
v -0.550050 1.654789 1.327937
v -0.555570 -1.000000 0.831470
v -0.798548 1.654789 1.195112
v -0.707107 -1.000000 0.707107
v -1.016359 1.654789 1.016359
v -0.831470 -1.000000 0.555570
v -1.195112 1.654789 0.798548
v -0.923880 -1.000000 0.382683
v -1.327937 1.654789 0.550050
v -0.980785 -1.000000 0.195090
v -1.409731 1.654789 0.280413
v -1.000000 -1.000000 0.000000
v -1.437349 1.654789 0.000000
v -0.980785 -1.000000 -0.195090
v -1.409731 1.654789 -0.280413
v -0.923880 -1.000000 -0.382683
v -1.327937 1.654789 -0.550050
v -0.831470 -1.000000 -0.555570
v -1.195112 1.654789 -0.798548
v -0.707107 -1.000000 -0.707107
v -1.016359 1.654789 -1.016359
v -0.555570 -1.000000 -0.831470
v -0.798548 1.654789 -1.195112
v -0.382683 -1.000000 -0.923880
v -0.550050 1.654789 -1.327937
v -0.195090 -1.000000 -0.980785
v -0.280413 1.654789 -1.409731
v 0.000000 1.770599 -1.841789
v 0.359315 1.770599 -1.806399
v 0.704822 1.770599 -1.701591
v 1.023243 1.770599 -1.531391
v 1.302341 1.770599 -1.302341
v 1.531391 1.770599 -1.023243
v 1.701591 1.770599 -0.704822
v 1.806399 1.770599 -0.359315
v 1.841789 1.770599 0.000000
v 1.806399 1.770599 0.359315
v 1.701591 1.770599 0.704822
v 1.531391 1.770599 1.023243
v 1.302341 1.770599 1.302341
v 1.023243 1.770599 1.531391
v 0.704822 1.770599 1.701591
v 0.359315 1.770599 1.806399
v 0.000000 1.770599 1.841789
v -0.359315 1.770599 1.806399
v -0.704822 1.770599 1.701591
v -1.023243 1.770599 1.531391
v -1.302341 1.770599 1.302341
v -1.531391 1.770599 1.023243
v -1.701591 1.770599 0.704822
v -1.806399 1.770599 0.359315
v -1.841789 1.770599 0.000000
v -1.806399 1.770599 -0.359315
v -1.701591 1.770599 -0.704822
v -1.531391 1.770599 -1.023243
v -1.302341 1.770599 -1.302341
v -1.023243 1.770599 -1.531391
v -0.704822 1.770599 -1.701591
v -0.359315 1.770599 -1.806399
vt 1.000000 0.750000
vt 1.000000 1.000000
vt 0.968750 1.000000
vt 0.968750 0.750000
vt 0.937500 1.000000
vt 0.937500 0.750000
vt 0.906250 1.000000
vt 0.906250 0.750000
vt 0.875000 1.000000
vt 0.875000 0.750000
vt 0.843750 1.000000
vt 0.843750 0.750000
vt 0.812500 1.000000
vt 0.812500 0.750000
vt 0.781250 1.000000
vt 0.781250 0.750000
vt 0.750000 1.000000
vt 0.750000 0.750000
vt 0.718750 1.000000
vt 0.718750 0.750000
vt 0.687500 1.000000
vt 0.687500 0.750000
vt 0.656250 1.000000
vt 0.656250 0.750000
vt 0.625000 1.000000
vt 0.625000 0.750000
vt 0.593750 1.000000
vt 0.593750 0.750000
vt 0.562500 1.000000
vt 0.562500 0.750000
vt 0.531250 1.000000
vt 0.531250 0.750000
vt 0.500000 1.000000
vt 0.500000 0.750000
vt 0.468750 1.000000
vt 0.468750 0.750000
vt 0.437500 1.000000
vt 0.437500 0.750000
vt 0.406250 1.000000
vt 0.406250 0.750000
vt 0.375000 1.000000
vt 0.375000 0.750000
vt 0.343750 1.000000
vt 0.343750 0.750000
vt 0.312500 1.000000
vt 0.312500 0.750000
vt 0.281250 1.000000
vt 0.281250 0.750000
vt 0.250000 1.000000
vt 0.250000 0.750000
vt 0.218750 1.000000
vt 0.218750 0.750000
vt 0.187500 1.000000
vt 0.187500 0.750000
vt 0.156250 1.000000
vt 0.156250 0.750000
vt 0.125000 1.000000
vt 0.125000 0.750000
vt 0.093750 1.000000
vt 0.093750 0.750000
vt 0.062500 1.000000
vt 0.062500 0.750000
vt 0.031250 0.500000
vt 0.031250 0.750000
vt 0.000000 0.750000
vt 0.000000 0.500000
vt 0.031250 1.000000
vt 0.000000 1.000000
vt 0.750000 0.490000
vt 0.796822 0.485388
vt 0.841844 0.471731
vt 0.883337 0.449553
vt 0.919706 0.419706
vt 0.949553 0.383337
vt 0.971731 0.341844
vt 0.985388 0.296822
vt 0.990000 0.250000
vt 0.985388 0.203178
vt 0.971731 0.158156
vt 0.949553 0.116663
vt 0.919706 0.080294
vt 0.883337 0.050447
vt 0.841844 0.028269
vt 0.796822 0.014612
vt 0.750000 0.010000
vt 0.703178 0.014612
vt 0.658156 0.028269
vt 0.616663 0.050447
vt 0.580294 0.080294
vt 0.550447 0.116663
vt 0.528269 0.158156
vt 0.514612 0.203178
vt 0.510000 0.250000
vt 0.514612 0.296822
vt 0.528269 0.341844
vt 0.550447 0.383337
vt 0.580294 0.419706
vt 0.616663 0.449553
vt 0.658156 0.471731
vt 0.703178 0.485388
vt 0.062500 0.500000
vt 0.093750 0.500000
vt 0.125000 0.500000
vt 0.156250 0.500000
vt 0.187500 0.500000
vt 0.218750 0.500000
vt 0.250000 0.500000
vt 0.281250 0.500000
vt 0.312500 0.500000
vt 0.343750 0.500000
vt 0.375000 0.500000
vt 0.406250 0.500000
vt 0.437500 0.500000
vt 0.468750 0.500000
vt 0.500000 0.500000
vt 0.531250 0.500000
vt 0.562500 0.500000
vt 0.593750 0.500000
vt 0.625000 0.500000
vt 0.656250 0.500000
vt 0.687500 0.500000
vt 0.718750 0.500000
vt 0.750000 0.500000
vt 0.781250 0.500000
vt 0.812500 0.500000
vt 0.843750 0.500000
vt 0.875000 0.500000
vt 0.906250 0.500000
vt 0.937500 0.500000
vt 0.968750 0.500000
vt 1.000000 0.500000
vn -0.0271 0.9610 0.2752
vn -0.0803 0.9610 0.2646
vn -0.1303 0.9610 0.2439
vn -0.1754 0.9610 0.2137
vn -0.2137 0.9610 0.1754
vn -0.2439 0.9610 0.1303
vn -0.2646 0.9610 0.0803
vn -0.2752 0.9610 0.0271
vn -0.2752 0.9610 -0.0271
vn -0.2646 0.9610 -0.0803
vn -0.2439 0.9610 -0.1303
vn -0.2137 0.9610 -0.1754
vn -0.1754 0.9610 -0.2137
vn -0.1303 0.9610 -0.2439
vn -0.0803 0.9610 -0.2646
vn -0.0271 0.9610 -0.2752
vn 0.0271 0.9610 -0.2752
vn 0.0803 0.9610 -0.2646
vn 0.1303 0.9610 -0.2439
vn 0.1754 0.9610 -0.2137
vn 0.2137 0.9610 -0.1754
vn 0.2439 0.9610 -0.1303
vn 0.2646 0.9610 -0.0803
vn 0.2752 0.9610 -0.0271
vn 0.2752 0.9610 0.0271
vn 0.2646 0.9610 0.0803
vn 0.2439 0.9610 0.1303
vn 0.2137 0.9610 0.1754
vn 0.1754 0.9610 0.2137
vn 0.1303 0.9610 0.2439
vn -0.0938 -0.2894 -0.9526
vn 0.0803 0.9610 0.2646
vn 0.0271 0.9610 0.2752
vn 0.0000 -1.0000 0.0000
vn -0.2779 -0.2894 -0.9160
vn -0.4512 -0.2894 -0.8442
vn -0.6072 -0.2894 -0.7399
vn -0.7399 -0.2894 -0.6072
vn -0.8442 -0.2894 -0.4512
vn -0.9160 -0.2894 -0.2779
vn -0.9526 -0.2894 -0.0938
vn -0.9526 -0.2894 0.0938
vn -0.9160 -0.2894 0.2779
vn -0.8442 -0.2894 0.4512
vn -0.7399 -0.2894 0.6072
vn -0.6072 -0.2894 0.7399
vn -0.4512 -0.2894 0.8442
vn -0.2779 -0.2894 0.9160
vn -0.0938 -0.2894 0.9526
vn 0.0938 -0.2894 0.9526
vn 0.2779 -0.2894 0.9160
vn 0.4512 -0.2894 0.8442
vn 0.6072 -0.2894 0.7399
vn 0.7399 -0.2894 0.6072
vn 0.8442 -0.2894 0.4512
vn 0.9160 -0.2894 0.2779
vn 0.9526 -0.2894 0.0938
vn 0.9526 -0.2894 -0.0938
vn 0.9160 -0.2894 -0.2779
vn 0.8442 -0.2894 -0.4512
vn 0.7399 -0.2894 -0.6072
vn 0.6072 -0.2894 -0.7399
vn 0.4512 -0.2894 -0.8442
vn 0.2779 -0.2894 -0.9160
vn 0.0938 -0.2894 -0.9526
usemtl None
s off
f 65/1/1 2/2/1 4/3/1 66/4/1
f 66/4/2 4/3/2 6/5/2 67/6/2
f 67/6/3 6/5/3 8/7/3 68/8/3
f 68/8/4 8/7/4 10/9/4 69/10/4
f 69/10/5 10/9/5 12/11/5 70/12/5
f 70/12/6 12/11/6 14/13/6 71/14/6
f 71/14/7 14/13/7 16/15/7 72/16/7
f 72/16/8 16/15/8 18/17/8 73/18/8
f 73/18/9 18/17/9 20/19/9 74/20/9
f 74/20/10 20/19/10 22/21/10 75/22/10
f 75/22/11 22/21/11 24/23/11 76/24/11
f 76/24/12 24/23/12 26/25/12 77/26/12
f 77/26/13 26/25/13 28/27/13 78/28/13
f 78/28/14 28/27/14 30/29/14 79/30/14
f 79/30/15 30/29/15 32/31/15 80/32/15
f 80/32/16 32/31/16 34/33/16 81/34/16
f 81/34/17 34/33/17 36/35/17 82/36/17
f 82/36/18 36/35/18 38/37/18 83/38/18
f 83/38/19 38/37/19 40/39/19 84/40/19
f 84/40/20 40/39/20 42/41/20 85/42/20
f 85/42/21 42/41/21 44/43/21 86/44/21
f 86/44/22 44/43/22 46/45/22 87/46/22
f 87/46/23 46/45/23 48/47/23 88/48/23
f 88/48/24 48/47/24 50/49/24 89/50/24
f 89/50/25 50/49/25 52/51/25 90/52/25
f 90/52/26 52/51/26 54/53/26 91/54/26
f 91/54/27 54/53/27 56/55/27 92/56/27
f 92/56/28 56/55/28 58/57/28 93/58/28
f 93/58/29 58/57/29 60/59/29 94/60/29
f 94/60/30 60/59/30 62/61/30 95/62/30
f 63/63/31 96/64/31 65/65/31 1/66/31
f 95/62/32 62/61/32 64/67/32 96/64/32
f 96/64/33 64/67/33 2/68/33 65/65/33
f 1/69/34 3/70/34 5/71/34 7/72/34 9/73/34 11/74/34 13/75/34 15/76/34 17/77/34 19/78/34 21/79/34 23/80/34 25/81/34 27/82/34 29/83/34 31/84/34 33/85/34 35/86/34 37/87/34 39/88/34 41/89/34 43/90/34 45/91/34 47/92/34 49/93/34 51/94/34 53/95/34 55/96/34 57/97/34 59/98/34 61/99/34 63/100/34
f 61/101/35 95/62/35 96/64/35 63/63/35
f 59/102/36 94/60/36 95/62/36 61/101/36
f 57/103/37 93/58/37 94/60/37 59/102/37
f 55/104/38 92/56/38 93/58/38 57/103/38
f 53/105/39 91/54/39 92/56/39 55/104/39
f 51/106/40 90/52/40 91/54/40 53/105/40
f 49/107/41 89/50/41 90/52/41 51/106/41
f 47/108/42 88/48/42 89/50/42 49/107/42
f 45/109/43 87/46/43 88/48/43 47/108/43
f 43/110/44 86/44/44 87/46/44 45/109/44
f 41/111/45 85/42/45 86/44/45 43/110/45
f 39/112/46 84/40/46 85/42/46 41/111/46
f 37/113/47 83/38/47 84/40/47 39/112/47
f 35/114/48 82/36/48 83/38/48 37/113/48
f 33/115/49 81/34/49 82/36/49 35/114/49
f 31/116/50 80/32/50 81/34/50 33/115/50
f 29/117/51 79/30/51 80/32/51 31/116/51
f 27/118/52 78/28/52 79/30/52 29/117/52
f 25/119/53 77/26/53 78/28/53 27/118/53
f 23/120/54 76/24/54 77/26/54 25/119/54
f 21/121/55 75/22/55 76/24/55 23/120/55
f 19/122/56 74/20/56 75/22/56 21/121/56
f 17/123/57 73/18/57 74/20/57 19/122/57
f 15/124/58 72/16/58 73/18/58 17/123/58
f 13/125/59 71/14/59 72/16/59 15/124/59
f 11/126/60 70/12/60 71/14/60 13/125/60
f 9/127/61 69/10/61 70/12/61 11/126/61
f 7/128/62 68/8/62 69/10/62 9/127/62
f 5/129/63 67/6/63 68/8/63 7/128/63
f 3/130/64 66/4/64 67/6/64 5/129/64
f 1/131/65 65/1/65 66/4/65 3/130/65
